{
    "accessors" : [
        {
            "bufferView" : 0,
            "componentType" : 5123,
            "count" : 2880,
            "max" : [
                481
            ],
            "min" : [
                0
            ],
            "type" : "SCALAR"
        },
        {
            "bufferView" : 1,
            "componentType" : 5126,
            "count" : 482,
            "max" : [
                1.000000238418579,
                1.0,
                1.0000003576278687
            ],
            "min" : [
                -0.9999998211860657,
                -1.0,
                -1.0
            ],
            "type" : "VEC3"
        },
        {
            "bufferView" : 2,
            "componentType" : 5126,
            "count" : 482,
            "max" : [
                1.0,
                1.0,
                1.0
            ],
            "min" : [
                -1.0,
                -1.0,
                -1.0
            ],
            "type" : "VEC3"
        },
        {
            "bufferView" : 3,
            "componentType" : 5123,
            "count" : 2880,
            "max" : [
                481
            ],
            "min" : [
                0
            ],
            "type" : "SCALAR"
        },
        {
            "bufferView" : 4,
            "componentType" : 5126,
            "count" : 482,
            "max" : [
                1.000000238418579,
                1.0,
                1.0000003576278687
            ],
            "min" : [
                -0.9999998211860657,
                -1.0,
                -1.0
            ],
            "type" : "VEC3"
        },
        {
            "bufferView" : 5,
            "componentType" : 5126,
            "count" : 482,
            "max" : [
                1.0,
                1.0,
                1.0
            ],
            "min" : [
                -1.0,
                -1.0,
                -1.0
            ],
            "type" : "VEC3"
        },
        {
            "bufferView" : 6,
            "componentType" : 5123,
            "count" : 2880,
            "max" : [
                481
            ],
            "min" : [
                0
            ],
            "type" : "SCALAR"
        },
        {
            "bufferView" : 7,
            "componentType" : 5126,
            "count" : 482,
            "max" : [
                1.000000238418579,
                1.0,
                1.0000003576278687
            ],
            "min" : [
                -0.9999998211860657,
                -1.0,
                -1.0
            ],
            "type" : "VEC3"
        },
        {
            "bufferView" : 8,
            "componentType" : 5126,
            "count" : 482,
            "max" : [
                1.0,
                1.0,
                1.0
            ],
            "min" : [
                -1.0,
                -1.0,
                -1.0
            ],
            "type" : "VEC3"
        },
        {
            "bufferView" : 9,
            "componentType" : 5123,
            "count" : 2880,
            "max" : [
                481
            ],
            "min" : [
                0
            ],
            "type" : "SCALAR"
        },
        {
            "bufferView" : 10,
            "componentType" : 5126,
            "count" : 482,
            "max" : [
                1.000000238418579,
                1.0,
                1.0000003576278687
            ],
            "min" : [
                -0.9999998211860657,
                -1.0,
                -1.0
            ],
            "type" : "VEC3"
        },
        {
            "bufferView" : 11,
            "componentType" : 5126,
            "count" : 482,
            "max" : [
                1.0,
                1.0,
                1.0
            ],
            "min" : [
                -1.0,
                -1.0,
                -1.0
            ],
            "type" : "VEC3"
        },
        {
            "bufferView" : 12,
            "componentType" : 5123,
            "count" : 2880,
            "max" : [
                481
            ],
            "min" : [
                0
            ],
            "type" : "SCALAR"
        },
        {
            "bufferView" : 13,
            "componentType" : 5126,
            "count" : 482,
            "max" : [
                1.000000238418579,
                1.0,
                1.0000003576278687
            ],
            "min" : [
                -0.9999998211860657,
                -1.0,
                -1.0
            ],
            "type" : "VEC3"
        },
        {
            "bufferView" : 14,
            "componentType" : 5126,
            "count" : 482,
            "max" : [
                1.0,
                1.0,
                1.0
            ],
            "min" : [
                -1.0,
                -1.0,
                -1.0
            ],
            "type" : "VEC3"
        },
        {
            "bufferView" : 15,
            "componentType" : 5123,
            "count" : 2940,
            "max" : [
                1633
            ],
            "min" : [
                0
            ],
            "type" : "SCALAR"
        },
        {
            "bufferView" : 16,
            "componentType" : 5126,
            "count" : 1634,
            "max" : [
                2.619431495666504,
                0.034513313323259354,
                0.2428496927022934
            ],
            "min" : [
                0.0002700686454772949,
                -0.03451330587267876,
                -0.2569798231124878
            ],
            "type" : "VEC3"
        },
        {
            "bufferView" : 17,
            "componentType" : 5126,
            "count" : 1634,
            "max" : [
                1.0,
                1.0,
                1.0
            ],
            "min" : [
                -1.0,
                -1.0,
                -1.0
            ],
            "type" : "VEC3"
        },
        {
            "bufferView" : 18,
            "componentType" : 5123,
            "count" : 2880,
            "max" : [
                481
            ],
            "min" : [
                0
            ],
            "type" : "SCALAR"
        },
        {
            "bufferView" : 19,
            "componentType" : 5126,
            "count" : 482,
            "max" : [
                1.000000238418579,
                1.0,
                1.0000003576278687
            ],
            "min" : [
                -0.9999998211860657,
                -1.0,
                -1.0
            ],
            "type" : "VEC3"
        },
        {
            "bufferView" : 20,
            "componentType" : 5126,
            "count" : 482,
            "max" : [
                1.0,
                1.0,
                1.0
            ],
            "min" : [
                -1.0,
                -1.0,
                -1.0
            ],
            "type" : "VEC3"
        }
    ],
    "asset" : {
        "generator" : "Khronos Blender glTF 2.0 exporter",
        "version" : "2.0"
    },
    "bufferViews" : [
        {
            "buffer" : 0,
            "byteLength" : 5760,
            "byteOffset" : 0,
            "target" : 34963
        },
        {
            "buffer" : 0,
            "byteLength" : 5784,
            "byteOffset" : 5760,
            "target" : 34962
        },
        {
            "buffer" : 0,
            "byteLength" : 5784,
            "byteOffset" : 11544,
            "target" : 34962
        },
        {
            "buffer" : 0,
            "byteLength" : 5760,
            "byteOffset" : 17328,
            "target" : 34963
        },
        {
            "buffer" : 0,
            "byteLength" : 5784,
            "byteOffset" : 23088,
            "target" : 34962
        },
        {
            "buffer" : 0,
            "byteLength" : 5784,
            "byteOffset" : 28872,
            "target" : 34962
        },
        {
            "buffer" : 0,
            "byteLength" : 5760,
            "byteOffset" : 34656,
            "target" : 34963
        },
        {
            "buffer" : 0,
            "byteLength" : 5784,
            "byteOffset" : 40416,
            "target" : 34962
        },
        {
            "buffer" : 0,
            "byteLength" : 5784,
            "byteOffset" : 46200,
            "target" : 34962
        },
        {
            "buffer" : 0,
            "byteLength" : 5760,
            "byteOffset" : 51984,
            "target" : 34963
        },
        {
            "buffer" : 0,
            "byteLength" : 5784,
            "byteOffset" : 57744,
            "target" : 34962
        },
        {
            "buffer" : 0,
            "byteLength" : 5784,
            "byteOffset" : 63528,
            "target" : 34962
        },
        {
            "buffer" : 0,
            "byteLength" : 5760,
            "byteOffset" : 69312,
            "target" : 34963
        },
        {
            "buffer" : 0,
            "byteLength" : 5784,
            "byteOffset" : 75072,
            "target" : 34962
        },
        {
            "buffer" : 0,
            "byteLength" : 5784,
            "byteOffset" : 80856,
            "target" : 34962
        },
        {
            "buffer" : 0,
            "byteLength" : 5880,
            "byteOffset" : 86640,
            "target" : 34963
        },
        {
            "buffer" : 0,
            "byteLength" : 19608,
            "byteOffset" : 92520,
            "target" : 34962
        },
        {
            "buffer" : 0,
            "byteLength" : 19608,
            "byteOffset" : 112128,
            "target" : 34962
        },
        {
            "buffer" : 0,
            "byteLength" : 5760,
            "byteOffset" : 131736,
            "target" : 34963
        },
        {
            "buffer" : 0,
            "byteLength" : 5784,
            "byteOffset" : 137496,
            "target" : 34962
        },
        {
            "buffer" : 0,
            "byteLength" : 5784,
            "byteOffset" : 143280,
            "target" : 34962
        }
    ],
    "buffers" : [
        {
            "byteLength" : 149064,
            "uri" : "liemar.bin"
        }
    ],
    "materials" : [
        {
            "name" : "Material",
            "pbrMetallicRoughness" : {
                "baseColorFactor" : [
                    0.640000066757203,
                    0.3617876583604165,
                    0.054313237284321136,
                    1.0
                ],
                "metallicFactor" : 0.0
            }
        },
        {
            "name" : "Material.001",
            "pbrMetallicRoughness" : {
                "baseColorFactor" : [
                    0.05673163617747479,
                    0.3107398556283094,
                    0.640000066757203,
                    1.0
                ],
                "metallicFactor" : 0.0
            }
        }
    ],
    "meshes" : [
        {
            "name" : "Sphere.003",
            "primitives" : [
                {
                    "attributes" : {
                        "NORMAL" : 2,
                        "POSITION" : 1
                    },
                    "indices" : 0,
                    "material" : 0
                }
            ]
        },
        {
            "name" : "Sphere",
            "primitives" : [
                {
                    "attributes" : {
                        "NORMAL" : 5,
                        "POSITION" : 4
                    },
                    "indices" : 3,
                    "material" : 0
                }
            ]
        },
        {
            "name" : "Sphere.001",
            "primitives" : [
                {
                    "attributes" : {
                        "NORMAL" : 8,
                        "POSITION" : 7
                    },
                    "indices" : 6,
                    "material" : 0
                }
            ]
        },
        {
            "name" : "Sphere.002",
            "primitives" : [
                {
                    "attributes" : {
                        "NORMAL" : 11,
                        "POSITION" : 10
                    },
                    "indices" : 9,
                    "material" : 0
                }
            ]
        },
        {
            "name" : "Sphere.004",
            "primitives" : [
                {
                    "attributes" : {
                        "NORMAL" : 14,
                        "POSITION" : 13
                    },
                    "indices" : 12,
                    "material" : 0
                }
            ]
        },
        {
            "name" : "CUText",
            "primitives" : [
                {
                    "attributes" : {
                        "NORMAL" : 17,
                        "POSITION" : 16
                    },
                    "indices" : 15,
                    "material" : 1
                }
            ]
        },
        {
            "name" : "Sphere.005",
            "primitives" : [
                {
                    "attributes" : {
                        "NORMAL" : 20,
                        "POSITION" : 19
                    },
                    "indices" : 18,
                    "material" : 0
                }
            ]
        }
    ],
    "nodes" : [
        {
            "name" : "Camera",
            "rotation" : [
                -8.925427152917109e-08,
                -8.92542360020343e-08,
                0.7071066498756409,
                0.70710688829422
            ],
            "scale" : [
                1.0000001192092896,
                1.0000001192092896,
                1.0000001192092896
            ],
            "translation" : [
                -7.527687072753906,
                2.473532199859619,
                -0.1225937157869339
            ]
        },
        {
            "name" : "Lamp",
            "rotation" : [
                0.16907575726509094,
                0.7558802962303162,
                -0.27217137813568115,
                0.570947527885437
            ],
            "scale" : [
                1.0,
                1.0,
                0.9999999403953552
            ],
            "translation" : [
                -2.075615406036377,
                0.1956620216369629,
                -1.0054539442062378
            ]
        },
        {
            "mesh" : 1,
            "name" : "Sphere",
            "scale" : [
                0.3929145932197571,
                0.3929145932197571,
                0.3929145932197571
            ],
            "translation" : [
                0.0012931972742080688,
                0.9411412477493286,
                -1.1245416402816772
            ]
        },
        {
            "mesh" : 2,
            "name" : "Sphere.001",
            "scale" : [
                0.25339066982269287,
                0.25339066982269287,
                0.25339066982269287
            ],
            "translation" : [
                0.0012929588556289673,
                0.25977304577827454,
                -0.8752607107162476
            ]
        },
        {
            "mesh" : 3,
            "name" : "Sphere.002",
            "scale" : [
                0.2010917216539383,
                0.2010917216539383,
                0.2010917216539383
            ],
            "translation" : [
                0.0012928396463394165,
                -0.25144118070602417,
                -1.0802251100540161
            ]
        },
        {
            "mesh" : 0,
            "name" : "Sphere.003",
            "scale" : [
                0.13411985337734222,
                0.13411985337734222,
                0.13411985337734222
            ],
            "translation" : [
                0.001292792847380042,
                -0.5880475044250488,
                -0.8317776322364807
            ]
        },
        {
            "mesh" : 4,
            "name" : "Sphere.004",
            "scale" : [
                0.10736994445323944,
                0.10736994445323944,
                0.10736994445323944
            ],
            "translation" : [
                0.0012927744537591934,
                -0.46783092617988586,
                -0.5352435111999512
            ]
        },
        {
            "mesh" : 6,
            "name" : "Sphere.005",
            "scale" : [
                0.07955702394247055,
                0.07955702394247055,
                0.07955702394247055
            ],
            "translation" : [
                0.0012927502393722534,
                -0.7429932951927185,
                -0.3829692006111145
            ]
        },
        {
            "mesh" : 5,
            "name" : "Text",
            "rotation" : [
                0.0,
                0.0,
                0.7071068286895752,
                0.7071068286895752
            ],
            "scale" : [
                2.0,
                2.0,
                2.0
            ]
        }
    ],
    "scene" : 0,
    "scenes" : [
        {
            "name" : "Scene",
            "nodes" : [
                7,
                6,
                5,
                4,
                3,
                2,
                8,
                1,
                0
            ]
        }
    ]
}
