{"accessors":[{"name":"82 102862 BAR20 VERANKERING ST37_1_positions","componentType":5126,"count":420,"min":[80,13310,-525.0900268554688],"max":[100,13430,-160],"type":"VEC3","bufferView":0,"byteOffset":0},{"name":"82 102862 BAR20 VERANKERING ST37_1_0_indices","componentType":5123,"count":2508,"min":[0],"max":[419],"type":"SCALAR","bufferView":1,"byteOffset":0}],"asset":{"generator":"obj2gltf","version":"2.0"},"buffers":[{"name":"shop_82","byteLength":10056,"uri":"data:application/octet-stream;base64,"}],"bufferViews":[{"name":"bufferView_0","buffer":0,"byteLength":5040,"byteOffset":0,"byteStride":12,"target":34962},{"name":"bufferView_1","buffer":0,"byteLength":5016,"byteOffset":5040,"target":34963}],"materials":[{"name":"color6","pbrMetallicRoughness":{"baseColorFactor":[0,0,1,1],"metallicFactor":0,"roughnessFactor":0.83511},"emissiveFactor":[0,0,0],"alphaMode":"OPAQUE","doubleSided":false}],"meshes":[{"name":"82 102862 BAR20 VERANKERING ST37_1","primitives":[{"attributes":{"POSITION":0},"indices":1,"material":0,"mode":4}]}],"nodes":[{"name":"82 102862 BAR20 VERANKERING ST37","mesh":0}],"scene":0,"scenes":[{"nodes":[0]}]}